<?xml version="1.0" encoding="UTF-8"?>
<svg width="16px" height="21px" viewBox="0 0 16 21" version="1.1" xmlns="http://www.w3.org/2000/svg" xmlns:xlink="http://www.w3.org/1999/xlink">
    <!-- Generator: Sketch 61.2 (89653) - https://sketch.com -->
    <title>lock</title>
    <desc>Created with Sketch.</desc>
    <g id="Icons" stroke="none" stroke-width="1" fill="none" fill-rule="evenodd">
        <g id="icons" transform="translate(-568.000000, -27.000000)" fill="#64C26E" fill-rule="nonzero">
            <g id="Lock" transform="translate(564.000000, 25.000000)">
                <path d="M12,18 C13.1045695,18 14,17.1045695 14,16 C14,14.89 13.1,14 12,14 C10.8954305,14 10,14.8954305 10,16 C10,17.1045695 10.8954305,18 12,18 M18,9 C19.1045695,9 20,9.8954305 20,11 L20,21 C20,22.1045695 19.1045695,23 18,23 L6,23 C4.8954305,23 4,22.1045695 4,21 L4,11 C4,9.89 4.9,9 6,9 L7,9 L7,7 C7,4.23857625 9.23857625,2 12,2 C13.3260824,2 14.597852,2.5267842 15.5355339,3.46446609 C16.4732158,4.40214799 17,5.67391755 17,7 L17,9 L18,9 M12,4 C10.3431458,4 9,5.34314575 9,7 L9,9 L15,9 L15,7 C15,5.34314575 13.6568542,4 12,4 Z" id="lock"></path>
            </g>
        </g>
    </g>
</svg>
