<?xml version="1.0" encoding="UTF-8"?>
<svg width="30px" height="20px" viewBox="0 0 30 20" version="1.1" xmlns="http://www.w3.org/2000/svg" xmlns:xlink="http://www.w3.org/1999/xlink">
    <!-- Generator: Sketch 61.2 (89653) - https://sketch.com -->
    <title>pay-visa</title>
    <desc>Created with Sketch.</desc>
    <g id="Icons" stroke="none" stroke-width="1" fill="none" fill-rule="evenodd">
        <g id="icons" transform="translate(-615.000000, -27.000000)" fill-rule="nonzero">
            <g id="visa" transform="translate(613.000000, 25.000000)">
                <g id="pay-visa" transform="translate(2.000000, 2.000000)">
                    <rect id="card_bg" fill="#2A2A6C" x="0" y="0" width="30" height="20" rx="4"></rect>
                    <path d="M14.9125,7.11875 L13.6625,12.9 L12.1625,12.9 L13.4125,7.11875 L14.9125,7.11875 Z M21.2,10.86875 L21.9875,8.7 L22.44375,10.86875 L21.2,10.86875 Z M22.86875,12.91875 L24.25625,12.91875 L23.04375,7.1375 L21.79375,7.1375 C21.5187264,7.14001544 21.2721921,7.30765877 21.16875,7.5625 L18.925,12.91875 L20.5,12.91875 L20.80625,12.05625 L22.6875,12.05625 L22.86875,12.91875 Z M18.96875,11.04375 C18.975,9.4875 16.875,9.375 16.875,8.75 C16.875,8.54375 17.075,8.325 17.5,8.26875 C18.0058116,8.21870575 18.5157052,8.30728898 18.975,8.525 L19.2375,7.275 C18.7897601,7.1070987 18.3156834,7.02032573 17.8375,7.01875 C16.3625,7.01875 15.3375,7.80625 15.3375,8.93125 C15.3375,9.7625 16.08125,10.225 16.64375,10.5 C17.20625,10.775 17.425,10.96875 17.41875,11.21875 C17.41875,11.60625 16.95625,11.78125 16.525,11.7875 C15.9930333,11.7943485 15.4681254,11.6652728 15,11.4125 L14.73125,12.6625 C15.2609274,12.8692776 15.8251595,12.9732151 16.39375,12.96875 C17.9625,12.96875 18.99375,12.19375 19,10.99375 M12.80625,7.09999412 L10.38125,12.88125 L8.75,12.88125 L7.55625,8.2625 C7.53527777,8.04266258 7.399849,7.85021117 7.2,7.75625 C6.73079075,7.53236784 6.23521131,7.36857464 5.725,7.26875 L5.7625,7.09999412 L8.30625,7.09999412 C8.65050383,7.09859918 8.94467588,7.34771786 9,7.6875 L9.625,11.03125 L11.18125,7.09999412 L12.80625,7.09999412 Z" id="visa-logo" fill="#FFFFFF"></path>
                </g>
            </g>
        </g>
    </g>
</svg>
