<?xml version="1.0" encoding="UTF-8"?>
<svg width="30px" height="20px" viewBox="0 0 30 20" version="1.1" xmlns="http://www.w3.org/2000/svg" xmlns:xlink="http://www.w3.org/1999/xlink">
    <!-- Generator: Sketch 61.2 (89653) - https://sketch.com -->
    <title>pay-amex</title>
    <desc>Created with Sketch.</desc>
    <g id="Icons" stroke="none" stroke-width="1" fill="none" fill-rule="evenodd">
        <g id="icons" transform="translate(-683.000000, -27.000000)" fill-rule="nonzero">
            <g id="amex" transform="translate(681.000000, 25.000000)">
                <g id="pay-amex" transform="translate(2.000000, 2.000000)">
                    <rect id="Rectangle" fill="#FFFFFF" x="0" y="0" width="30" height="20" rx="4"></rect>
                    <g id="amex" fill="#296DB6">
                        <path d="M5.55,11.1875 L5.55,16.2875 L10.7125,16.2875 L11.25,15.525 L11.775,16.2875 L14.93125,16.2875 L14.93125,15.1375 L15.28125,15.1375 C15.5989702,15.1402774 15.9152085,15.0938958 16.21875,15 L16.21875,16.2875 L18.3625,16.2875 L18.3625,15.375 L19.0875,16.2875 L28.85,16.2875 C29.2512809,16.2945075 29.6461209,16.186035 29.9875,15.975 L29.9875,18.125 C29.7015195,19.2326405 28.7002031,20.0048639 27.55625,20.0000228 L2.5,20.0000228 C1.11928813,20.0000228 0,18.8807119 0,17.5 L0,9.625 L1.425,9.625 L1.71875,8.8625 L2.41875,8.8625 L2.70625,9.625 L14.16875,9.625 L14.16875,8.7125 L14.89375,9.625 L17.9,9.625 L17.9,9.1625 C18.3408291,9.47628803 18.8715667,9.63857971 19.4125,9.625 L21.20625,9.625 L21.49375,8.8625 L22.19375,8.8625 L22.5,9.625 L25.5625,9.625 L25.5625,8.6375 L26.1875,9.625 L28.3,9.625 L28.3,4.525 L26.05625,4.525 L26.05625,5.5625 L25.3875,4.525 L23.425,4.525 L23.425,5.8375 L22.8,4.525 L19.4625,4.525 C18.8978734,4.50864023 18.3452482,4.68990127 17.9,5.0375 L17.9,4.525 L6.875,4.525 L6.5,5.625 L6.125,4.5 L3.625,4.5 L3.625,5.8125 L3.0375,4.5 L1,4.5 L0,6.875 L0,2.5 C0,1.11928813 1.11928813,-0.000107966292 2.5,-0.000107966292 L27.55625,-0.000107966292 C28.7048482,-0.0106171017 29.7128872,0.762814348 30,1.875 L30,11.1875 L11.7875,11.1875 L11.25,11.9375 L10.725,11.1875 L5.55,11.1875 Z" id="Path"></path>
                        <path d="M9.19375,12.725 L9.19375,11.975 L6.3625,11.975 L6.3625,15.5 L9.19375,15.5 L9.19375,14.75 L7.2125,14.75 L7.2125,14.125 L9.15625,14.125 L9.15625,13.3625 L7.2125,13.3625 L7.2125,12.7375 L9.19375,12.725 Z M11.75,13.75 L13.1625,12 L12.125,12 L11.25,13.0875 L10.38125,11.975 L9.31875,11.975 L10.75,13.75 L9.375,15.5 L10.4,15.5 L11.25,14.375 L12.1,15.5125 L13.175,15.5125 L11.75,13.75 Z M15.26875,12 L13.325,12 L13.325,15.5 L14.18125,15.5 L14.18125,14.3375 L15.24375,14.3375 C15.5713187,14.3623239 15.8940982,14.2473953 16.1322663,14.0211356 C16.3704344,13.7948759 16.5017539,13.4784105 16.49375,13.15 C16.5074534,12.8254749 16.3809994,12.5107168 16.1465869,12.2858721 C15.9121744,12.0610275 15.5924228,11.9477925 15.26875,11.975 L15.26875,12 Z M15.19375,13.6125 L14.18125,13.6125 L14.18125,12.725 L15.19375,12.725 C15.4319228,12.725 15.625,12.9180772 15.625,13.15625 C15.625,13.3944228 15.4319228,13.5875 15.19375,13.5875 L15.19375,13.6125 Z M19.125,14.2375 C19.7394168,14.1650126 20.1787374,13.6081668 20.10625,12.99375 C20.0337626,12.3793332 19.4769168,11.9400126 18.8625,12.0125 L16.95,12.0125 L16.95,15.5 L17.8,15.5 L17.8,14.25 L18.1875,14.25 L19.2375,15.5 L20.30625,15.5 L19.125,14.2375 Z M18.7875,13.5375 L17.8,13.5375 L17.8,12.725 L18.7875,12.725 C18.8986181,12.7105373 19.0105564,12.7448843 19.0944397,12.819181 C19.178323,12.8934776 19.2259372,13.0004486 19.225,13.1125 C19.2280895,13.2252408 19.1811034,13.3335638 19.0966753,13.408343 C19.0122471,13.4831222 18.8990425,13.5166825 18.7875,13.5 L18.7875,13.5375 Z M23.35,12.7625 L23.35,12.0125 L20.50625,12.0125 L20.50625,15.5 L23.35,15.5 L23.35,14.75 L21.36875,14.75 L21.36875,14.125 L23.3,14.125 L23.3,13.3625 L21.36875,13.3625 L21.36875,12.7375 L23.35,12.7625 Z M25.70625,13.3875 L24.8875,13.3875 C24.7609535,13.4129355 24.631559,13.3595411 24.5597758,13.2522651 C24.4879925,13.1449891 24.4879925,13.0050109 24.5597758,12.8977349 C24.631559,12.7904589 24.7609535,12.7370645 24.8875,12.7625 L26.40625,12.7625 L26.74375,12.0125 L24.9125,12.0125 C24.6009206,11.976395 24.2889257,12.0765807 24.0566163,12.2873356 C23.824307,12.4980905 23.6943098,12.7988874 23.7,13.1125 C23.681011,13.4043175 23.7931684,13.6893976 24.0059063,13.8900481 C24.2186442,14.0906986 24.5097906,14.1860074 24.8,14.15 L25.625,14.15 C25.7515465,14.1245645 25.880941,14.1779589 25.9527242,14.2852349 C26.0245075,14.3925109 26.0245075,14.5324891 25.9527242,14.6397651 C25.880941,14.7470411 25.7515465,14.8004355 25.625,14.775 L23.8,14.775 L23.8,15.525 L25.625,15.525 C25.939963,15.5507552 26.2506722,15.4390241 26.4771031,15.2185835 C26.703534,14.9981428 26.8235534,14.6905402 26.80625,14.375 C26.822043,14.086112 26.7078892,13.8052853 26.4950183,13.6093474 C26.2821475,13.4134094 25.9928424,13.3228705 25.70625,13.3625 L25.70625,13.3875 Z M28.14375,12.7625 L29.6625,12.7625 L30,12 L30,12 L28.16875,12 C27.8571706,11.963895 27.5451757,12.0640807 27.3128663,12.2748356 C27.080557,12.4855905 26.9505598,12.7863874 26.95625,13.1 C26.937261,13.3918175 27.0494184,13.6768976 27.2621563,13.8775481 C27.4748942,14.0781986 27.7660406,14.1735074 28.05625,14.1375 L28.8625,14.1375 C28.9890465,14.1120645 29.118441,14.1654589 29.1902242,14.2727349 C29.2620075,14.3800109 29.2620075,14.5199891 29.1902242,14.6272651 C29.118441,14.7345411 28.9890465,14.7879355 28.8625,14.7625 L27.05625,14.7625 L27.05625,15.5125 L28.85,15.5125 C29.3541201,15.5626649 29.8278954,15.2639805 30,14.7875 L30,13.95 C29.8198433,13.5544673 29.407349,13.3180377 28.975,13.3625 L28.125,13.3625 C27.9984535,13.3879355 27.869059,13.3345411 27.7972758,13.2272651 C27.7254925,13.1199891 27.7254925,12.9800109 27.7972758,12.8727349 C27.869059,12.7654589 27.9984535,12.7120645 28.125,12.7375 L28.14375,12.7625 Z" id="Shape"></path>
                        <path d="M2.64375,5.3125 L1.53125,5.3125 L0,8.8375 L0.925,8.8375 L1.25,8.125 L2.89375,8.125 L3.19375,8.8625 L4.15625,8.8625 L2.64375,5.3125 Z M1.4875,7.4125 L1.83125,6.5875 L2.05625,6.0375 L2.28125,6.5875 L2.61875,7.4125 L1.4875,7.4125 Z M7.3125,5.3125 L6.625,7.35 L6.5125,7.7375 L6.5125,7.7375 L6.4,7.35 L5.7,5.3125 L4.31875,5.3125 L4.31875,8.8375 L5.15,8.8375 L5.15,6.525 L5.15,5.9875 L5.15,5.9875 L5.325,6.525 L6.125,8.8375 L6.875,8.8375 L7.69375,6.525 L7.85625,5.9875 L7.85625,5.9875 L7.85625,6.525 L7.85625,8.8375 L8.68125,8.8375 L8.68125,5.3125 L7.3125,5.3125 Z M12.1875,6.0625 L12.1875,5.3125 L9.375,5.3125 L9.375,8.8375 L12.1875,8.8375 L12.1875,8.0875 L10.20625,8.0875 L10.20625,7.4625 L12.1375,7.4625 L12.1375,6.7 L10.20625,6.7 L10.20625,6.075 L12.1875,6.0625 Z M14.94375,7.5375 C15.503294,7.47003531 15.9199641,6.98842956 15.90625,6.425 C15.9107923,6.10382659 15.7755155,5.7965368 15.5355759,5.58299057 C15.2956363,5.36944434 14.9747279,5.27072931 14.65625,5.3125 L12.75,5.3125 L12.75,8.8375 L13.61875,8.8375 L13.61875,7.5875 L14.00625,7.5875 L15.05625,8.8375 L16.11875,8.8375 L14.94375,7.5375 Z M14.60625,6.8375 L13.61875,6.8375 L13.61875,6.0625 L14.60625,6.0625 C14.7169456,6.05011857 14.8277064,6.08520045 14.9110886,6.15905324 C14.9944707,6.23290603 15.0426723,6.33861929 15.04375,6.45 C15.0468395,6.5627408 14.9998534,6.67106385 14.9154253,6.74584304 C14.8309971,6.82062222 14.7177925,6.85418246 14.60625,6.8375 L14.60625,6.8375 Z M16.31875,5.3125 L16.31875,8.8375 L17.175,8.8375 L17.175,5.3125 L16.31875,5.3125 Z M19.44375,6.075 L20.3625,6.075 L20.3625,5.3125 L19.375,5.3125 C18.9101438,5.28311748 18.455698,5.45856305 18.1311818,5.79269454 C17.8066656,6.12682603 17.6445604,6.58619961 17.6875,7.05 L17.6875,7.1 C17.6352816,7.55716578 17.7872263,8.01410596 18.1028142,8.34896646 C18.4184022,8.68382695 18.8655445,8.86255922 19.325,8.8375 L19.375,8.8375 L19.71875,8.0875 L19.4375,8.0875 C19.1781158,8.10083142 18.926214,7.99824169 18.7499464,7.80748628 C18.5736787,7.61673087 18.4912642,7.35752633 18.525,7.1 L18.525,7.05 C18.4952853,6.79448375 18.5795114,6.53883674 18.7552869,6.35102176 C18.9310625,6.16320678 19.1805778,6.06225351 19.4375,6.075 L19.44375,6.075 Z M22.43125,5.3125 L21.30625,5.3125 L19.79375,8.8375 L20.70625,8.8375 L21.00625,8.125 L22.675,8.125 L22.975,8.8625 L23.9375,8.8625 L22.43125,5.3125 Z M21.28125,7.4125 L21.60625,6.5875 L21.83125,6.0375 L21.83125,6.0375 L22.04375,6.5875 L22.38125,7.4125 L21.28125,7.4125 Z M26.63125,5.3125 L26.63125,7.1875 L26.63125,7.6125 L26.63125,7.6125 L26.39375,7.2125 L25.14375,5.3375 L24.1,5.3375 L24.1,8.8625 L24.9375,8.8625 L24.9375,6.875 L24.9375,6.4625 L24.9375,6.4625 L25.1625,6.85 L26.46875,8.8375 L27.5,8.8375 L27.5,5.3125 L26.63125,5.3125 Z" id="Shape"></path>
                    </g>
                </g>
            </g>
        </g>
    </g>
</svg>
