<?xml version="1.0" encoding="UTF-8"?>
<svg width="30px" height="20px" viewBox="0 0 30 20" version="1.1" xmlns="http://www.w3.org/2000/svg" xmlns:xlink="http://www.w3.org/1999/xlink">
    <!-- Generator: Sketch 61.2 (89653) - https://sketch.com -->
    <title>pay-mastercard</title>
    <desc>Created with Sketch.</desc>
    <g id="Icons" stroke="none" stroke-width="1" fill="none" fill-rule="evenodd">
        <g id="icons" transform="translate(-649.000000, -27.000000)" fill-rule="nonzero">
            <g id="mastercard" transform="translate(647.000000, 25.000000)">
                <g id="pay-mastercard" transform="translate(2.000000, 2.000000)">
                    <rect id="card_bg" fill="#F2F0EC" x="0" y="0" width="30" height="20" rx="4"></rect>
                    <g id="mastercard" transform="translate(2.500000, 1.875000)">
                        <g id="Group" opacity="0" fill="#FFFFFF">
                            <rect id="Rectangle" x="0.40625" y="0.125" width="24.19375" height="16"></rect>
                        </g>
                        <rect id="Rectangle" fill="#F26122" x="9.3125" y="2.9125" width="6.38125" height="10.425"></rect>
                        <path d="M10,8.125 C9.98945948,6.09595894 10.9110669,4.17440744 12.5,2.9125 C9.78140713,0.774559282 5.8762175,1.08501254 3.52955875,3.62562869 C1.18289999,6.16624483 1.18289999,10.0837552 3.52955875,12.6243713 C5.8762175,15.1649875 9.78140713,15.4754407 12.5,13.3375 C10.9110669,12.0755926 9.98945948,10.1540411 10,8.125 Z" id="Path" fill="#EA1D25"></path>
                        <path d="M22.6625,12.385 L22.6625,12.045 L22.8125,12.045 L22.8125,11.975 L22.4625,11.975 L22.4625,12.045 L22.6025,12.045 L22.6025,12.385 L22.6625,12.385 Z M23.3425,12.385 L23.3425,11.975 L23.2425,11.975 L23.1225,12.265 L22.9925,11.975 L22.8925,11.975 L22.8925,12.385 L22.9625,12.385 L22.9625,12.075 L23.0825,12.345 L23.1625,12.345 L23.2725,12.075 L23.2725,12.385 L23.3425,12.385 Z" id="Shape" fill="#F69E1E"></path>
                        <path d="M23.225,8.125 C23.2233668,10.6620902 21.7742819,12.9758738 19.492417,14.0848921 C17.210552,15.1939104 14.4959156,14.9037535 12.5,13.3375 C15.3750356,11.0737229 15.8729082,6.90893509 13.6125,4.03125 C13.2884691,3.61454379 12.9148844,3.2388603 12.5,2.9125 C14.4959156,1.34624651 17.210552,1.05608965 19.492417,2.16510792 C21.7742819,3.2741262 23.2233668,5.58790984 23.225,8.125 L23.225,8.125 Z" id="Path" fill="#F69E1E"></path>
                    </g>
                </g>
            </g>
        </g>
    </g>
</svg>
