<?xml version="1.0" encoding="UTF-8"?>
<svg width="30px" height="20px" viewBox="0 0 30 20" version="1.1" xmlns="http://www.w3.org/2000/svg" xmlns:xlink="http://www.w3.org/1999/xlink">
    <!-- Generator: Sketch 61.2 (89653) - https://sketch.com -->
    <title>pay-paypal</title>
    <desc>Created with Sketch.</desc>
    <g id="Icons" stroke="none" stroke-width="1" fill="none" fill-rule="evenodd">
        <g id="icons" transform="translate(-717.000000, -27.000000)" fill-rule="nonzero">
            <g id="paypal" transform="translate(715.000000, 25.000000)">
                <g id="pay-paypal" transform="translate(2.000000, 2.000000)">
                    <rect id="card_bg" fill="#FFFFFF" x="0" y="0" width="30" height="20" rx="4"></rect>
                    <path d="M27.5,1.25 C28.1903559,1.25 28.75,1.80964406 28.75,2.5 L28.75,17.5 C28.75,18.1903559 28.1903559,18.75 27.5,18.75 L2.5,18.75 C1.80964406,18.75 1.25,18.1903559 1.25,17.5 L1.25,2.5 C1.25,1.80964406 1.80964406,1.25 2.5,1.25 L27.5,1.25 M27.5,0 L2.5,0 C1.11928813,0 0,1.11928813 0,2.5 L0,17.5 C0,18.8807119 1.11928813,20 2.5,20 L27.5,20 C28.8807119,20 30,18.8807119 30,17.5 L30,2.5 C30,1.11928813 28.8807119,0 27.5,0 Z" id="card_bg-2" fill="#CCCCCB"></path>
                    <g id="paypal" transform="translate(9.375000, 3.750000)">
                        <path d="M3.3375,12.075 L3.55625,10.7 L3.06875,10.7 L0.76875,10.7 L2.36875,0.5375 C2.37301774,0.506013822 2.38856259,0.477144814 2.4125,0.45625 C2.43762409,0.436835001 2.468261,0.42589325 2.5,0.425 L6.38125,0.425 C7.675,0.425 8.5625,0.69375 9.03125,1.225 C9.23866447,1.44783002 9.38317408,1.72175122 9.45,2.01875 C9.52289563,2.3796896 9.52289563,2.7515604 9.45,3.1125 L9.45,3.425 L9.66875,3.55 C9.8352797,3.63300104 9.98557514,3.74519342 10.1125,3.88125 C10.303543,4.11187239 10.4268654,4.39097041 10.46875,4.6875 C10.5155665,5.07513471 10.498677,5.46781662 10.41875,5.85 C10.3363217,6.31424581 10.173459,6.76053199 9.9375,7.16875 C9.74681221,7.49603077 9.48909543,7.77930625 9.18125,8 C8.87140516,8.21128484 8.5264495,8.36577419 8.1625,8.45625 C7.75392847,8.55931633 7.33385649,8.60972497 6.9125,8.60625 L6.60625,8.60625 C6.39160637,8.60628107 6.18374816,8.68146382 6.01875,8.81875 C5.85289142,8.9585038 5.74394942,9.15415474 5.7125,9.36875 L5.7125,9.49375 L5.33125,11.91875 L5.33125,12.0125 C5.3357764,12.0288593 5.3357764,12.0461407 5.33125,12.0625 L5.29375,12.0625 L3.3375,12.075 Z" id="Path" fill="#253D80"></path>
                        <path d="M9.875,3.175 L9.8375,3.40625 C9.325,6.03125 7.56875,6.94375 5.33125,6.94375 L4.19375,6.94375 C3.92006445,6.94341785 3.68680149,7.14222151 3.64375,7.4125 L3.0625,11.1125 L2.89375,12.1625 C2.88108175,12.24658 2.90546783,12.3320243 2.96060629,12.3967521 C3.01574475,12.4614798 3.09622534,12.4991399 3.18125,12.5 L5.20625,12.5 C5.44636239,12.4997802 5.65055972,12.3247539 5.6875,12.0875 L5.6875,11.9875 L6.06875,9.56875 L6.06875,9.4375 C6.10285354,9.20121744 6.30501987,9.02565194 6.54375,9.025 L6.875,9.025 C8.83125,9.025 10.36875,8.23125 10.8125,5.9 C11.0526015,5.10321598 10.9044761,4.23992286 10.4125,3.56875 C10.2563792,3.40863474 10.0747391,3.27557278 9.875,3.175 L9.875,3.175 Z" id="Path" fill="#189BD7"></path>
                        <path d="M9.3375,2.9625 L9.1,2.9 L8.8375,2.85 C8.50652745,2.80050732 8.17213177,2.77751762 7.8375,2.78125 L4.7875,2.78125 C4.71625548,2.77929455 4.64556536,2.79428942 4.58125,2.825 C4.43632475,2.89285002 4.33530341,3.02911137 4.3125,3.1875 L3.6875,7.29375 L3.6875,7.4125 C3.73055149,7.14222151 3.96381445,6.94341785 4.2375,6.94375 L5.375,6.94375 C7.6125,6.94375 9.36875,6.03125 9.88125,3.40625 L9.91875,3.175 C9.78413198,3.10543174 9.64408873,3.0469062 9.5,3 L9.3375,2.9625 Z" id="Path" fill="#242E65"></path>
                        <path d="M4.3125,3.1875 C4.33530341,3.02911137 4.43632475,2.89285002 4.58125,2.825 C4.64556536,2.79428942 4.71625548,2.77929455 4.7875,2.78125 L7.8375,2.78125 C8.17213177,2.77751762 8.50652745,2.80050732 8.8375,2.85 L9.1,2.9 L9.3375,2.9625 L9.45625,2.99999958 C9.60033873,3.0469062 9.74038198,3.10543174 9.875,3.175 C10.0781568,2.3941418 9.89195976,1.56323754 9.375,0.94375 C8.75,0.28125 7.725,-4.15570671e-07 6.3875,-4.15570671e-07 L2.5,-4.15570671e-07 C2.22631445,-0.000332145044 1.99305149,0.198471512 1.95,0.46875 L0.33125,10.725 C0.316758394,10.8217203 0.344934864,10.9199708 0.40848338,10.9943106 C0.472031896,11.0686504 0.564702859,11.1117685 0.6625,11.1125 L3.0625,11.1125 L3.6875,7.29375 L4.3125,3.1875 Z" id="Path" fill="#253D80"></path>
                    </g>
                </g>
            </g>
        </g>
    </g>
</svg>
