<?xml version="1.0" encoding="UTF-8"?>
<svg width="20px" height="20px" viewBox="0 0 20 20" version="1.1" xmlns="http://www.w3.org/2000/svg" xmlns:xlink="http://www.w3.org/1999/xlink">
    <!-- Generator: Sketch 61.2 (89653) - https://sketch.com -->
    <title>phone</title>
    <desc>Created with Sketch.</desc>
    <g id="Icons" stroke="none" stroke-width="1" fill="none" fill-rule="evenodd">
        <g id="icons" transform="translate(-321.000000, -27.000000)" fill="#D4A000" fill-rule="nonzero">
            <g id="Phone" transform="translate(319.000000, 25.000000)">
                <path d="M6.02222222,10.6555556 C7.62222222,13.8 10.2,16.3777778 13.3444444,17.9777778 L15.7888889,15.5333333 C16.1,15.2222222 16.5333333,15.1333333 16.9222222,15.2555556 C18.1666667,15.6666667 19.5,15.8888889 20.8888889,15.8888889 C21.5025386,15.8888889 22,16.3863503 22,17 L22,20.8888889 C22,21.5025386 21.5025386,22 20.8888889,22 C10.4568436,22 2,13.5431564 2,3.11111111 C2,2.81642612 2.11706316,2.53381066 2.32543691,2.32543691 C2.53381066,2.11706316 2.81642612,2 3.11111111,2 L7,2 C7.61364972,2 8.11111111,2.49746139 8.11111111,3.11111111 C8.11111111,4.5 8.33333333,5.83333333 8.74444444,7.07777778 C8.86666667,7.46666667 8.77777778,7.9 8.46666667,8.21111111 L6.02222222,10.6555556 Z" id="phone"></path>
            </g>
        </g>
    </g>
</svg>
