<?xml version="1.0" encoding="UTF-8" standalone="no"?>
<svg width="18px" height="18px" viewBox="0 0 18 18" version="1.1" xmlns="http://www.w3.org/2000/svg"
     xmlns:xlink="http://www.w3.org/1999/xlink">
    <!-- Generator: Sketch 39.1 (31720) - http://www.bohemiancoding.com/sketch -->
    <title>icon-arrow-left</title>
    <desc>Created with Sketch.</desc>
    <defs></defs>
    <g id="icons" stroke="none" stroke-width="1" fill="none" fill-rule="evenodd">
        <g id="icon-arrow-left" fill="#28367B">
            <path
                d="M13.6997668,7.86194606 C13.3147394,8.2583536 9.24824293,12.131388 9.24824293,12.131388 C9.04150407,12.3438169 8.77027786,12.4500314 8.50094834,12.4500314 C8.22972214,12.4500314 7.95849593,12.3438169 7.75365376,12.131388 C7.75365376,12.131388 3.68715732,8.2583536 3.30023322,7.86194606 C2.91330912,7.46553853 2.88675551,6.75238431 3.30023322,6.32942316 C3.71181425,5.90646201 4.28840703,5.87421833 4.7948224,6.32942316 L8.50094834,9.88381416 L12.2070743,6.32942316 C12.7134897,5.87421833 13.2881857,5.90646201 13.6997668,6.32942316 C14.1132445,6.75238431 14.0866909,7.46553853 13.6997668,7.86194606"
                id="Fill-118"
                transform="translate(8.500000, 9.225016) rotate(-270.000000) translate(-8.500000, -9.225016) "></path>
        </g>
    </g>
</svg>
