<?xml version="1.0" encoding="UTF-8" standalone="no"?>
<svg width="18px" height="18px" viewBox="0 0 18 18" version="1.1" xmlns="http://www.w3.org/2000/svg"
     xmlns:xlink="http://www.w3.org/1999/xlink">
    <!-- Generator: Sketch 39.1 (31720) - http://www.bohemiancoding.com/sketch -->
    <title>icon-arrow-right</title>
    <desc>Created with Sketch.</desc>
    <defs></defs>
    <g id="icons" stroke="none" stroke-width="1" fill="none" fill-rule="evenodd">
        <g id="icon-arrow-right" fill="#28367B">
            <path
                d="M14.6997668,7.86194606 C14.3147394,8.2583536 10.2482429,12.131388 10.2482429,12.131388 C10.0415041,12.3438169 9.77027786,12.4500314 9.50094834,12.4500314 C9.22972214,12.4500314 8.95849593,12.3438169 8.75365376,12.131388 C8.75365376,12.131388 4.68715732,8.2583536 4.30023322,7.86194606 C3.91330912,7.46553853 3.88675551,6.75238431 4.30023322,6.32942316 C4.71181425,5.90646201 5.28840703,5.87421833 5.7948224,6.32942316 L9.50094834,9.88381416 L13.2070743,6.32942316 C13.7134897,5.87421833 14.2881857,5.90646201 14.6997668,6.32942316 C15.1132445,6.75238431 15.0866909,7.46553853 14.6997668,7.86194606"
                id="Fill-118"
                transform="translate(9.500000, 9.225016) rotate(-90.000000) translate(-9.500000, -9.225016) "></path>
        </g>
    </g>
</svg>
