<?xml version="1.0" encoding="UTF-8"?>
<svg width="18px" height="18px" viewBox="0 0 18 18" version="1.1" xmlns="http://www.w3.org/2000/svg" xmlns:xlink="http://www.w3.org/1999/xlink">
    <!-- Generator: Sketch 43.2 (39069) - http://www.bohemiancoding.com/sketch -->
    <title>instagram</title>
    <desc>Created with Sketch.</desc>
    <defs></defs>
    <g id="Page-1" stroke="none" stroke-width="1" fill="none" fill-rule="evenodd">
        <g id="instagram" fill="#6B6B6A">
            <path d="M8.928,4.32 C6.408,4.32 4.32,6.372 4.32,8.928 C4.32,11.484 6.372,13.536 8.928,13.536 C11.484,13.536 13.536,11.448 13.536,8.928 C13.536,6.408 11.448,4.32 8.928,4.32 Z M8.928,11.88 C7.308,11.88 5.976,10.548 5.976,8.928 C5.976,7.308 7.308,5.976 8.928,5.976 C10.548,5.976 11.88,7.308 11.88,8.928 C11.88,10.548 10.548,11.88 8.928,11.88 Z" id="Shape"></path>
            <circle id="Oval" cx="13.644" cy="4.284" r="1.044"></circle>
            <path d="M16.416,1.476 C15.48,0.504 14.148,3.55271368e-15 12.636,3.55271368e-15 L5.22,3.55271368e-15 C2.088,3.55271368e-15 -3.55271368e-15,2.088 -3.55271368e-15,5.22 L-3.55271368e-15,12.6 C-3.55271368e-15,14.148 0.504,15.48 1.512,16.452 C2.484,17.388 3.78,17.856 5.256,17.856 L12.6,17.856 C14.148,17.856 15.444,17.352 16.38,16.452 C17.352,15.516 17.856,14.184 17.856,12.636 L17.856,5.22 C17.856,3.708 17.352,2.412 16.416,1.476 Z M16.2,12.636 C16.2,13.752 15.876,14.652 15.228,15.264 C14.58,15.876 13.68,16.2 12.6,16.2 L5.256,16.2 C4.176,16.2 3.276,15.876 2.628,15.264 C1.98,14.616 1.656,13.716 1.656,12.6 L1.656,5.22 C1.656,4.14 1.98,3.24 2.628,2.592 C3.24,1.98 4.176,1.656 5.256,1.656 L12.672,1.656 C13.752,1.656 14.652,1.98 15.3,2.628 C15.912,3.276 16.272,4.176 16.272,5.22 L16.272,12.636 L16.2,12.636 Z" id="Shape"></path>
        </g>
    </g>
</svg>