<?xml version="1.0" encoding="UTF-8"?>
<svg width="19px" height="18px" viewBox="0 0 19 18" version="1.1" xmlns="http://www.w3.org/2000/svg" xmlns:xlink="http://www.w3.org/1999/xlink">
    <!-- Generator: Sketch 43.2 (39069) - http://www.bohemiancoding.com/sketch -->
    <title>linkedin</title>
    <desc>Created with Sketch.</desc>
    <defs></defs>
    <g id="Page-1" stroke="none" stroke-width="1" fill="none" fill-rule="evenodd">
        <g id="linkedin" fill="#6B6B6A">
            <path d="M0.703326223,6.2351575 L4.31959332,6.2351575 L4.31959332,17.9709677 L0.703326223,17.9709677 L0.703326223,6.2351575 Z M2.5455755,0.435483871 C3.70551025,0.435483871 4.66075057,1.39072424 4.66075057,2.55065897 C4.66075057,3.71059368 3.70551025,4.66583406 2.5455755,4.66583406 C1.38564077,4.66583406 0.430400404,3.71059368 0.430400404,2.55065897 C0.430400404,1.39072424 1.38564077,0.435483871 2.5455755,0.435483871 Z M6.63946281,6.2351575 L10.119267,6.2351575 L10.119267,7.80448099 L10.1874984,7.80448099 C10.6651186,6.84924062 11.8932848,5.89400025 13.6673026,5.89400025 C17.3518012,5.89400025 18.0341157,8.35033262 18.0341157,11.4889796 L18.0341157,17.9027363 L14.4178486,17.9027363 L14.4178486,12.1712941 C14.4178486,10.806665 14.4178486,9.03264718 12.5073679,9.03264718 C10.5968872,9.03264718 10.3239613,10.5337392 10.3239613,12.0348312 L10.3239613,17.8345048 L6.70769425,17.8345048 L6.70769425,6.2351575 L6.63946281,6.2351575 Z" id="Shape"></path>
        </g>
    </g>
</svg>