<svg xmlns="http://www.w3.org/2000/svg" width="162" height="77" viewBox="0 0 162 77">
  <g fill="none" fill-rule="evenodd">
    <path fill="#D39F00" d="M157.372774,0.16712524 L157.328975,0.328553028 L148.447315,12.2780077 C148.991945,12.5666785 149.433743,13.1383228 149.746048,13.6491943 C150.302104,13.7574459 150.932428,13.6966731 151.465632,13.8789915 C151.145709,14.2531241 150.709624,14.4639298 150.302104,14.6880296 L150.932428,15.2881611 L155.540836,18.9877062 C156.504413,19.9410797 157.848849,20.7254289 158.235422,22.0415401 C158.403001,23.2285092 158.176389,24.4097808 157.824093,25.4657084 C157.677462,25.7239929 157.488936,26.079134 157.165205,26.1380077 C156.399676,26.1380077 155.799821,25.7429844 155.17521,25.397339 C155.405631,25.6176404 155.83029,25.9366977 155.891228,26.3203261 C155.83029,26.7058537 155.519889,27.1046753 155.125699,27.1977336 C153.925989,27.4769087 153.480382,25.9442943 152.457773,25.7429844 C150.618218,24.8864675 148.121679,24.7250397 146.131685,25.3441628 C144.777727,25.511288 143.351405,25.4543135 142.323082,24.6034941 C142.248815,24.8712743 142.281188,25.182735 142.205016,25.4429186 L141.492807,29.4577227 L140.731087,34.5816306 C140.731087,34.8285201 140.601594,35.0754097 140.3826,35.1760647 L140.12171,35.1266868 C138.923905,33.5864757 137.333814,31.9835928 135.741818,30.8763881 C136.438792,28.4169882 137.461402,26.1076213 139.05911,24.0280515 C139.872247,22.9873171 140.077912,21.3844341 139.502813,20.1746753 C138.956278,18.6686489 139.354277,16.9708084 140.580647,15.9357714 L141.214779,15.4514881 C140.112189,17.1189422 140.443537,19.6201233 141.582309,21.1698301 C142.526843,22.746125 144.238809,23.2968786 145.990766,23.0993669 C146.929587,22.9341409 147.830321,22.6378734 148.51587,21.8611209 C148.788185,21.8041463 148.662501,22.1004138 148.727247,22.2181611 C148.750099,22.5808989 148.624415,23.0082077 148.929103,23.2456015 L149.243313,23.4488106 C150.144047,23.7583722 151.077155,24.00906 151.996932,24.2882351 L152.109286,24.0736311 C151.970272,23.9425898 151.916951,23.71849 151.977889,23.5228775 L152.318759,23.2171143 C153.465148,23.4393149 154.350648,24.2407564 155.405631,24.6547712 C155.938835,24.7592244 156.504413,25.1694409 157.049043,24.8199973 C157.734591,23.6273308 157.715548,21.7813565 156.795771,20.7045382 L156.586298,20.5184215 C156.820527,21.0501836 157.231856,21.8231378 156.778632,22.4080762 L156.266375,22.4859414 C155.702702,22.2903289 155.361832,21.6920965 155.190445,21.1869224 C155.177115,20.9723184 155.104751,20.6627569 155.268521,20.4899342 L155.702702,20.3057166 L155.340885,20.2107591 C153.636535,18.5717923 151.78365,16.9138339 149.789847,15.7819403 C149.603225,15.4951685 149.786038,15.084952 149.561331,14.8266676 L148.681544,14.9425158 C148.900538,15.2026994 149.136672,15.5331515 149.010988,15.9357714 C148.885304,16.2757194 148.527295,16.5397013 148.173095,16.58718 C147.735106,16.6270622 147.327586,16.4751302 147.104782,16.0934009 C146.982907,15.8749986 146.952438,15.5540422 147.038132,15.3166484 C146.74487,15.2178926 146.438277,15.1799096 146.177388,15.0355741 L146.198335,14.9880954 C146.952438,14.3917621 147.830321,14.0784023 148.727247,13.8315127 C147.961718,13.2731625 146.902927,13.1478186 146.364009,12.1925459 L153.499425,3.58939435 L153.499425,3.57040285 L153.276622,3.70144423 L144.389249,11.0112743 C143.93793,10.8821321 143.435194,10.8707372 142.936267,10.855544 C142.837244,8.96209098 141.803208,7.41428337 142.024107,5.45625925 C141.031966,7.04584818 140.740608,9.11022472 141.031966,11.1024335 C134.23742,14.7924829 130.807774,21.8972047 130.160312,29.1424637 C129.255768,28.9335571 128.330278,28.7987175 127.374319,28.7284489 C127.852299,24.1913785 129.608064,20.1822719 132.5902,16.674541 C134.42785,14.5360976 136.621605,12.9332146 138.923905,11.7291532 C134.974385,12.395755 131.432385,15.0906495 129.015827,18.5717923 C126.938234,21.6294245 125.517625,24.9510386 124.908249,28.6144999 C122.623088,28.6980625 120.417907,28.9924308 118.370784,29.651436 C118.387922,28.9601452 118.50218,28.3163332 118.5993,27.6611263 C120.455993,26.7799205 122.531681,26.4551658 124.658786,26.2291669 L124.723532,26.1873856 C122.979192,25.6461277 121.160585,25.2871883 119.229623,25.182735 L119.623814,23.7260866 C121.59667,23.1772321 123.679975,22.898057 125.890868,22.898057 L125.934667,22.8486791 C124.203658,22.0833215 122.407902,21.4945848 120.532165,21.0957632 L121.135829,19.6125267 C123.087737,19.3447465 125.302439,19.4131159 127.227688,19.7093834 L127.261965,19.6808961 C125.641405,18.7712031 123.984663,17.9868539 122.22128,17.4342012 L122.990618,16.0934009 C124.969187,15.9775528 126.820167,16.3023075 128.532134,16.9328254 L128.553081,16.9043382 C127.374319,15.5882269 125.892773,14.781088 124.4436,14.0138312 C124.792087,13.5523376 125.209129,13.1117347 125.635692,12.6692327 C127.576175,12.9541052 129.383357,13.620707 130.937266,14.7544999 C130.063192,13.4288928 128.802545,11.9798411 127.389553,11.1973911 C127.905619,10.7510907 128.50357,10.4111428 129.090094,10.0635982 C130.712559,10.5155961 132.220765,11.3379282 133.439518,12.6065607 C132.841567,11.385407 132.068421,10.1699507 131.038194,9.08743491 C131.693274,8.78546999 132.390248,8.58605919 133.075796,8.34866539 C134.349774,9.07414086 135.610421,10.1053796 136.570189,11.3170375 C136.396898,10.5061003 135.945578,9.77492738 135.578048,9.02476295 L134.862031,7.92895314 C135.869406,7.72764319 136.932006,7.66307207 138.015553,7.63458482 C138.613504,8.24611126 139.099101,8.90511647 139.502813,9.60400384 C139.902716,7.42567827 140.624446,5.38029323 142.281188,3.72043574 C142.380212,3.58939435 142.443053,3.32921074 142.648718,3.33680734 L142.785828,3.52102494 C142.770593,5.10111811 142.94198,6.61664018 143.275233,8.05239792 C143.705605,6.79895862 145.19096,6.05259249 145.760346,4.85992601 L145.960298,5.14100027 C146.028852,6.44001918 145.990766,7.788416 145.642279,8.92410797 L157.165205,-1.42108547e-14 L157.372774,0.16712524"/>
    <path fill="#882B00" d="M11.1740578,40.6754346 L13.8267492,40.6754346 C18.7760277,40.6754346 22.0647557,38.9643001 22.0647557,34.469011 C22.0647557,28.9424831 17.797217,27.5731957 13.489688,27.5731957 C12.5527718,27.5731957 11.7681998,27.6244727 11.1740578,27.6719515 L11.1740578,40.6754346 Z M0.00342774194,55.6369419 C2.89606108,54.6588794 4.75846753,53.9827819 5.10124172,53.4852044 C5.49352774,52.9515432 5.5925514,51.6772132 5.5925514,48.5967912 L5.5925514,33.9752318 C5.5925514,29.823689 5.29738473,28.1600332 5.00412237,27.7688082 C4.75846753,27.4269611 4.41759763,27.0357361 0.00342774194,25.6170707 L0.00342774194,24.9333765 C2.89606108,25.1232916 5.49352774,25.3265007 8.38616108,25.3265007 C11.8158073,25.3265007 14.2685471,24.9333765 16.7231912,24.9333765 C22.4532331,24.9333765 28.2404041,27.5731957 28.2404041,33.9296522 C28.2404041,38.1818501 25.5953299,43.3152538 14.8093686,43.3152538 C13.2383202,43.3152538 12.0652708,43.2202962 11.1740578,43.1196413 L11.1740578,50.7960074 C11.1740578,53.3883478 11.3759138,53.6333382 13.489688,54.4176873 L16.7688944,55.6369419 L16.7688944,56.3282327 C13.8800697,56.1250236 11.282603,55.9313102 8.38616108,55.9313102 C5.49352774,55.9313102 2.89606108,56.1250236 0.00342774194,56.3282327 L0.00342774194,55.6369419 Z M33.6164365,41.4075571 C33.6164365,40.2376805 33.5707332,36.1317172 33.3745902,35.787971 C33.1251268,35.3435697 33.1213182,35.1536547 29.9335182,34.2192727 L29.9335182,33.5374777 L30.0420633,33.5374777 C32.3900666,33.5374777 38.8627859,33.2431093 38.9637139,33.2431093 C38.8627859,35.5467788 38.7161547,39.5539863 38.7161547,42.2925612 L38.7161547,49.232057 C38.7161547,52.5574694 40.5785612,54.1717473 43.2731472,54.1717473 C46.9046494,54.1717473 49.1593418,51.7712212 49.1593418,48.1058608 L49.1593418,41.4075571 C49.1593418,40.2376805 49.10983,36.1317172 48.913687,35.787971 C48.6680322,35.3435697 48.2300429,35.1536547 45.0384343,34.2192727 L45.0384343,33.5374777 L45.5849687,33.5374777 C47.9329719,33.5374777 54.4056913,33.2431093 54.5009063,33.2431093 C54.4056913,35.5467788 54.2571558,39.5539863 54.2571558,42.2925612 L54.2571558,50.7019995 C54.2571558,52.6068474 54.5009063,53.8754799 54.7941687,54.1204703 C55.48543,54.7111061 56.2757149,55.2941452 57.945787,55.6359923 L57.945787,56.3272831 C56.5213698,56.1259731 55.3368945,55.9322598 53.7658461,55.9322598 C52.2043192,55.9322598 50.5780461,56.1259731 49.1593418,56.3272831 L49.1593418,52.9980723 L49.0603182,52.9980723 C46.3657322,56.1772502 44.0634322,56.8096673 40.7270967,56.8096673 C37.1032117,56.8096673 33.6164365,55.1953894 33.6164365,50.014507 L33.6164365,41.4075571 Z M60.0879353,55.5262214 C62.8358417,54.7456706 63.2319363,54.3107651 63.6299353,53.9138427 C63.9212933,53.6213735 63.9669966,52.7914448 63.9669966,48.8317161 L63.9669966,41.3015845 C63.9669966,40.1260104 63.9212933,36.0219463 63.7213417,35.6819984 C63.4813998,35.2394963 63.0357933,35.0419847 59.8518019,34.1151992 L59.8518019,33.4296059 L60.3869105,33.4296059 C62.7444353,33.4296059 68.9714998,33.1352376 69.0686191,33.1352376 L69.0686191,38.0274492 L69.1676428,38.0274492 C70.5863471,34.4095676 72.3497299,32.5484001 75.7317686,32.5484001 C76.2249826,32.5484001 76.7162923,32.5484001 77.106674,32.5996772 L77.106674,38.1224067 L76.4230299,38.1224067 C75.924103,36.9487317 74.7529578,36.6543634 73.4789804,36.6543634 C71.1271686,36.6543634 69.0686191,38.7605212 69.0686191,42.4752595 L69.0686191,51.1752677 C69.0686191,53.0839139 69.2609535,53.5719956 69.7008471,53.8644648 C70.6339546,54.5044785 71.5746794,55.0856185 72.9476804,55.5262214 L72.9476804,56.2080164 C70.4987492,56.0181014 68.6744288,55.8262872 66.4197363,55.8262872 C64.1631396,55.8262872 62.3426277,56.0181014 60.0879353,56.2080164 L60.0879353,55.5262214 Z M79.7563185,37.1743508 C81.5406486,34.4699605 84.1838185,32.6562719 88.9407626,32.6562719 C93.3035163,32.6562719 96.4456131,34.7092535 96.4456131,39.1133834 L96.4456131,49.6726599 C96.4456131,52.9505936 96.7331626,54.0236136 97.868126,54.5116953 L100.45988,55.6359923 L100.45988,56.3272831 C99.2792131,56.124074 97.6167583,55.9322598 96.1942454,55.9322598 C94.7279335,55.9322598 92.8179196,56.124074 91.8829077,56.3272831 L91.8829077,52.5574694 L91.7838841,52.5574694 C90.4622991,55.2960444 87.3278196,56.8096673 84.4770809,56.8096673 C80.7103733,56.8096673 77.8139314,54.4642165 77.8139314,50.8444357 C77.8139314,45.4166637 83.642997,42.5755347 91.6391572,42.5755347 L91.6391572,41.1169871 C91.6391572,37.1078805 89.9728938,35.2998893 86.6384626,35.2998893 C83.9381637,35.2998893 81.8796142,36.9065706 81.1274153,38.0536574 L79.7563185,37.1743508 Z M91.6391572,44.0454771 C87.8667368,44.1936109 82.6146744,45.2248495 82.6146744,50.0676832 C82.6146744,52.3599578 84.0429002,54.1717473 86.3928077,54.1717473 C89.4834884,54.1717473 91.6391572,51.7237424 91.6391572,48.1571378 L91.6391572,44.0454771 Z M100.993846,34.2204122 C103.886479,32.8017468 106.388731,30.4543968 108.003578,27.6721414 L108.984293,27.6721414 L108.984293,33.536718 L114.135428,33.536718 L114.135428,35.0028622 L108.984293,35.0028622 L108.984293,51.0886665 C108.984293,53.5366714 110.115448,54.1728868 111.336105,54.1728868 C112.516772,54.1728868 113.646022,53.4834952 114.626737,52.6991461 L115.357989,53.4834952 C113.006177,55.8327443 111.046651,56.8089076 108.397768,56.8089076 C105.411824,56.8089076 103.690336,55.4889981 103.690336,51.6242269 C103.690336,48.8894503 103.886479,47.030182 103.886479,43.3154437 L103.886479,35.0028622 L100.993846,35.0028622 L100.993846,34.2204122 Z M128.063866,32.6557021 C133.852942,32.6557021 139.586792,36.769262 139.586792,44.5405856 C139.586792,50.8457651 134.930776,56.8090976 128.111474,56.8090976 C121.93773,56.8090976 116.055344,52.7012351 116.055344,44.9299115 C116.055344,38.6190345 120.322883,32.6557021 128.063866,32.6557021 Z M128.311426,55.3467517 C131.50113,55.3467517 133.999573,52.9006459 133.999573,45.5661269 C133.999573,41.0689386 132.379013,34.1256446 127.869628,34.1256446 C124.144815,34.1256446 121.644468,37.0579329 121.644468,43.9024711 C121.644468,48.3996594 123.065076,55.3467517 128.311426,55.3467517 Z M158.324163,39.5036588 L157.537686,39.5036588 L155.621959,35.7376435 C155.233482,34.9551935 153.757649,34.4177339 151.847635,34.4177339 C148.859786,34.4177339 147.48869,35.7870214 147.48869,38.0337164 C147.48869,43.1196413 160.226559,42.3390904 160.226559,49.3792412 C160.226559,54.0739411 156.16659,56.8106169 149.79099,56.8106169 C147.88288,56.8106169 144.546544,56.4725681 143.072615,56.0319652 L143.563925,49.2311074 L144.297081,49.2311074 L145.136878,51.8234478 C145.866225,54.0739411 146.161392,55.0501044 149.983324,55.0501044 C152.138993,55.0501044 155.134458,54.0739411 155.134458,51.485399 C155.134458,45.7613596 142.388971,47.1781258 142.388971,39.695473 C142.388971,34.7633793 147.144011,32.6553223 151.405837,32.6553223 C153.323468,32.6553223 156.311316,33.0484464 158.716449,33.6333848 L158.324163,39.5036588 Z"/>
    <path fill="#D39F00" d="M3.19732151,69.3100655 C3.43345484,69.3100655 3.69434409,69.2967714 3.91714731,69.2701833 C5.1320914,69.1657301 6.21563871,68.4516495 6.21563871,67.2399915 C6.21563871,66.2638282 5.56246344,65.9656616 4.72457097,65.9656616 C4.40083978,65.9656616 4.19136667,65.9770565 3.99522366,65.9903505 L3.19732151,69.3100655 Z M0,73.6724141 C0.312305376,73.5394736 1.04546129,73.2811891 1.0702172,73.1767358 C1.50058925,71.6422223 2.53272043,66.5505999 2.53272043,66.210652 C2.53272043,66.1194927 1.68340215,65.781444 1.28159462,65.6769907 L1.28159462,65.4946722 C1.7748086,65.5459493 2.33657742,65.5459493 3.13447957,65.5459493 C3.76099462,65.5459493 4.55699247,65.4946722 5.23492366,65.4946722 C6.18707419,65.4946722 7.67623763,65.718772 7.67623763,67.1754204 C7.67623763,68.6985391 6.3717914,69.2834774 5.07877097,69.6215262 L6.53936989,72.838687 C6.76217312,73.330567 7.21920538,73.4881965 7.50675484,73.5812549 L7.74098387,73.6572209 L7.74098387,73.8547325 C7.35060215,73.8015563 6.95831613,73.7502793 6.56603011,73.7502793 C6.21563871,73.7502793 5.8481086,73.8015563 5.4958129,73.8547325 C5.3149043,73.3590543 5.11876129,72.8519811 4.90738387,72.3563028 L3.81241075,69.7525676 C3.57818172,69.7791557 3.34204839,69.7791557 3.10781935,69.7791557 L2.57271075,72.3297147 C2.49273011,72.7209397 2.42798387,73.0475936 2.42798387,73.1121647 C2.42798387,73.1900299 2.6641172,73.3210713 2.96309247,73.4236254 L3.64292796,73.6724141 L3.64292796,73.8547325 C3.08115914,73.8015563 2.50606022,73.7502793 1.81479892,73.7502793 C1.16352796,73.7502793 0.483692473,73.8015563 0,73.8547325 L0,73.6724141 Z M12.3507255,72.5530548 C11.6689857,73.2272532 10.886318,73.9850143 9.83133516,73.9850143 C8.73445774,73.9850143 8.19744484,73.0468339 8.19744484,72.0554774 C8.19744484,70.1164448 9.98748785,67.5525917 11.8403728,67.5525917 C12.5068782,67.5525917 13.0819771,67.8526574 13.0819771,68.5420491 C13.0819771,70.0005966 9.7246943,71.2103554 9.39905882,71.3281028 C9.39905882,72.0839646 9.5418814,73.2025643 10.4426158,73.2025643 C11.0177147,73.2025643 11.7489663,72.6954911 12.1279223,72.290972 L12.3507255,72.5530548 Z M9.42571903,70.9387769 C10.7968158,70.3766284 11.8803631,69.70243 11.8803631,68.7642497 C11.8803631,68.2818654 11.6461341,68.0197827 11.2138577,68.0197827 C10.2502814,68.0197827 9.49046527,69.9607144 9.42571903,70.9387769 Z M14.0868768,65.2996295 C14.4391725,65.1704873 15.8350252,64.5057846 16.238737,64.5057846 C16.5148606,64.5057846 16.631023,64.6102379 16.631023,64.8191444 C16.631023,65.104017 14.7781381,72.2391252 14.7781381,72.8525508 L14.9590467,73.1222302 C15.1551897,73.1222302 15.587466,72.8373576 15.8483553,72.6816273 L16.0178381,72.968399 C15.4160789,73.34633 14.4258424,73.9844445 13.9154897,73.9844445 C13.5765241,73.9844445 13.4984477,73.788832 13.4984477,73.4374892 C13.4984477,72.8905338 15.2485004,65.9909203 15.2485004,65.5731072 L15.0771133,65.3642006 C14.9361951,65.3642006 14.4258424,65.508536 14.2030391,65.5996953 L14.0868768,65.2996295 Z M18.7326097,65.6124196 C18.7326097,64.961011 19.1515559,64.7141214 19.5152774,64.7141214 C19.9723097,64.7141214 20.1951129,65.0141872 20.1951129,65.36553 C20.1951129,66.0302327 19.7914011,66.248635 19.3876892,66.248635 C19.0449151,66.248635 18.7326097,65.9504683 18.7326097,65.6124196 Z M16.9311409,68.647262 C17.8985258,68.0205423 18.6811935,67.5514522 18.9954032,67.5514522 C19.3343688,67.5514522 19.4391054,67.7223757 19.4391054,67.9692653 C19.4391054,68.5428087 18.3403237,72.3563028 18.3403237,72.9545352 L18.5117108,73.1235596 C18.7326097,73.1235596 19.2410581,72.8367879 19.4105409,72.7456287 L19.5438419,73.0191063 C18.5497968,73.645826 17.9366118,73.9838748 17.570986,73.9838748 C17.2053602,73.9838748 17.0625376,73.7502793 17.0625376,73.4122305 C17.0625376,72.7855108 18.1575108,69.2967714 18.1575108,68.7631102 L17.9499419,68.4896325 C17.7652247,68.4896325 17.4529194,68.6833458 17.0872935,68.9074456 L16.9311409,68.647262 Z M26.1070156,73.0342995 C25.312922,73.6192379 24.7130672,73.9838748 24.3855274,73.9838748 C24.0199016,73.9838748 23.8104285,73.8015563 23.8104285,73.5033897 C23.8104285,73.1653409 24.1760543,71.7960534 24.2293747,71.4599038 L24.2027145,71.4599038 C23.1972435,72.8899641 22.1517823,73.9838748 21.3310285,73.9838748 C20.4950403,73.9838748 20.3388876,73.1501477 20.3388876,72.5917975 C20.3388876,70.3375059 22.7935317,67.5514522 25.116779,67.5514522 C25.5223952,67.5514522 25.9394371,67.6046284 26.3431489,67.6559055 C25.8613608,68.3718852 25.0101382,72.6278813 25.0101382,72.9564344 L25.1948554,73.1235596 C25.3529124,73.1235596 25.7566242,72.8899641 25.9508629,72.7722168 L26.1070156,73.0342995 Z M22.1136962,72.9678293 C22.6773694,72.9678293 23.9551554,71.4693996 24.1893844,70.755319 C24.452178,69.972869 24.7130672,69.0365878 24.8558898,68.4250614 C24.6330866,68.3718852 24.4121876,68.3339022 24.0579876,68.3339022 C22.479322,68.3339022 21.5405016,70.6907479 21.5405016,71.9916659 C21.5405016,72.396185 21.618578,72.9678293 22.1136962,72.9678293 Z M27.6114134,65.3112143 C27.9751349,65.1706772 29.2948156,64.5059745 29.5956952,64.5059745 C29.7880296,64.5059745 29.9346608,64.6484108 29.9346608,64.8421241 C29.9346608,65.0396358 28.993936,69.0107594 28.8111231,69.7400332 L28.835879,69.7647221 C29.3995522,69.0487424 30.5992618,67.5522118 31.6180629,67.5522118 C32.4521468,67.5522118 32.6768543,68.3726448 32.6768543,69.0487424 C32.6768543,71.303034 30.7573188,73.9846344 28.1446177,73.9846344 C27.6228392,73.9846344 27.203893,73.9181642 26.8020855,73.8289041 C26.9963242,72.9932779 28.5883199,65.937934 28.5883199,65.546709 L28.4188371,65.3662897 C28.2493543,65.3662897 27.9351446,65.4954319 27.7294801,65.5732971 L27.6114134,65.3112143 Z M30.8734812,68.4903922 C30.3783629,68.5036862 29.2414952,69.4931436 28.7063866,70.5471721 C28.6283102,70.7029024 28.2893446,72.3038863 28.0798715,73.1774955 C28.2893446,73.3085369 28.6416403,73.4376791 28.9158597,73.4376791 C30.5992618,73.4376791 31.3952597,70.6896084 31.3952597,69.295632 C31.3952597,68.8683231 31.3571737,68.4903922 30.8734812,68.4903922 Z M34.1370724,65.2996295 C34.4912724,65.1704873 35.8871251,64.5057846 36.2908369,64.5057846 C36.5669605,64.5057846 36.6831229,64.6102379 36.6831229,64.8191444 C36.6831229,65.104017 34.830238,72.2391252 34.830238,72.8525508 L35.0130509,73.1222302 C35.2072896,73.1222302 35.6376616,72.8373576 35.9004552,72.6816273 L36.069938,72.968399 C35.4681788,73.34633 34.476038,73.9844445 33.9675896,73.9844445 C33.6267197,73.9844445 33.5505476,73.788832 33.5505476,73.4374892 C33.5505476,72.8905338 35.298696,65.9909203 35.298696,65.5731072 L35.1292132,65.3642006 C34.9863906,65.3642006 34.476038,65.508536 34.255139,65.5996953 L34.1370724,65.2996295 Z M40.978274,72.5530548 C40.2984385,73.2272532 39.5157708,73.9850143 38.4569794,73.9850143 C37.3620062,73.9850143 36.8249933,73.0468339 36.8249933,72.0554774 C36.8249933,70.1164448 38.613132,67.5525917 40.4698256,67.5525917 C41.1344267,67.5525917 41.7114299,67.8526574 41.7114299,68.5420491 C41.7114299,70.0005966 38.3522428,71.2103554 38.0266073,71.3281028 C38.0266073,72.0839646 38.1713342,73.2025643 39.0720686,73.2025643 C39.6471675,73.2025643 40.3765148,72.6954911 40.7554708,72.290972 L40.978274,72.5530548 Z M38.0532675,70.9387769 C39.4243643,70.3766284 40.5079116,69.70243 40.5079116,68.7642497 C40.5079116,68.2818654 40.2717783,68.0197827 39.8433105,68.0197827 C38.8759256,68.0197827 38.1180138,69.9607144 38.0532675,70.9387769 Z M45.1683076,68.6081395 C45.5586894,68.3726448 46.8269539,67.5522118 47.2420915,67.5522118 C47.4934592,67.5522118 47.6077173,67.7611184 47.6077173,67.9548317 C47.6077173,68.2548975 47.4648947,68.6594166 47.2192399,69.5729079 L47.2420915,69.5975969 C47.725784,68.8816172 48.8874076,67.5522118 49.8547926,67.5522118 C50.6907808,67.5522118 50.913584,68.3460567 50.913584,69.1152127 C50.913584,70.9896742 48.9140678,73.9048701 46.8650399,73.9048701 C46.6688969,73.9048701 46.4727539,73.840299 46.3166012,73.7757279 C46.1737786,74.4252373 45.9128894,75.7280545 45.9128894,75.8192138 L46.0423818,76.0015322 L46.3166012,76.0015322 L46.2251947,76.3167912 C45.6500958,76.4060512 45.0769012,76.5218994 44.5037066,76.6662349 C45.1416474,74.5050016 46.2251947,69.1930778 46.2251947,68.8816172 C46.2251947,68.7372817 46.2118646,68.5663582 46.0271474,68.5663582 L45.322556,68.8683231 L45.1683076,68.6081395 Z M49.1635313,68.4903922 C48.6150926,68.4903922 47.6477076,69.4551606 47.2040055,70.2490055 C46.9450205,70.7161965 46.5527345,72.4994988 46.5127442,72.8527408 C46.6974614,73.0616473 47.0726087,73.2819488 47.4782248,73.2819488 C49.0702205,73.2819488 49.71197,70.5604662 49.71197,69.3640014 C49.71197,68.9442891 49.6453195,68.4903922 49.1635313,68.4903922 Z M57.2686175,73.0342995 C56.4726197,73.6192379 55.8727648,73.9838748 55.5452251,73.9838748 C55.1795992,73.9838748 54.9720304,73.8015563 54.9720304,73.5033897 C54.9720304,73.1653409 55.3376562,71.7960534 55.3890724,71.4599038 L55.3624122,71.4599038 C54.3569412,72.8899641 53.3133842,73.9838748 52.4907261,73.9838748 C51.6566423,73.9838748 51.4985853,73.1501477 51.4985853,72.5917975 C51.4985853,70.3375059 53.9532294,67.5514522 56.2764767,67.5514522 C56.6801885,67.5514522 57.0991347,67.6046284 57.5028466,67.6559055 C57.0229627,68.3718852 56.1717401,72.6278813 56.1717401,72.9564344 L56.3564573,73.1235596 C56.51261,73.1235596 56.9163218,72.8899641 57.1124648,72.7722168 L57.2686175,73.0342995 Z M53.2752982,72.9678293 C53.837067,72.9678293 55.114853,71.4693996 55.3509863,70.755319 C55.6118756,69.972869 55.8727648,69.0365878 56.0174917,68.4250614 C55.7946885,68.3718852 55.5718853,68.3339022 55.2195896,68.3339022 C53.640924,68.3339022 52.7001992,70.6907479 52.7001992,71.9916659 C52.7001992,72.396185 52.7801799,72.9678293 53.2752982,72.9678293 Z M58.2489517,68.6466922 C58.5993431,68.4244916 59.9056937,67.5527816 60.3360657,67.5527816 C60.5322087,67.5527816 60.7150216,67.6420417 60.7150216,67.8775363 C60.7150216,68.0997369 60.4027162,69.1803535 60.2199033,70.0653576 L60.2446592,70.0653576 C60.6769356,69.2316306 61.5757657,67.5527816 62.6745474,67.5527816 C62.8973506,67.5527816 63.0268431,67.6173527 63.0268431,67.8262592 C63.0268431,68.0598548 62.7926141,68.8157166 62.6478872,69.2449246 L62.2803571,69.2449246 L62.3089216,68.9201699 C62.3089216,68.7245574 62.2689313,68.5669279 62.0861184,68.5669279 C61.5757657,68.5669279 60.5855291,69.79188 60.2065732,70.8345136 C59.9056937,71.6777364 59.6981248,72.9672595 59.5667281,73.7497095 L58.2489517,73.9852042 C58.6793238,72.3823212 59.3305947,69.1404714 59.3305947,68.7511455 L59.1896765,68.5669279 C58.9935334,68.5669279 58.5745872,68.8157166 58.3784442,68.933464 L58.2489517,68.6466922 Z M63.3389581,67.9314722 C64.4358355,67.6693894 65.191843,66.9401156 65.4946269,65.9373642 L65.9630849,65.9373642 C65.8069323,66.5887728 65.6507796,67.2002993 65.507957,67.7871367 L66.6829108,67.7871367 L66.5648441,68.1783617 L65.4032204,68.1783617 C65.0756806,69.4925739 64.5272419,72.5653993 64.5272419,72.890154 L64.7481409,73.1237495 C64.919528,73.1237495 65.4032204,72.8255829 65.7269516,72.6166763 L65.8850086,72.890154 C64.9061978,73.5149745 64.2130323,73.9840647 63.7712344,73.9840647 C63.4436946,73.9840647 63.262786,73.7751581 63.262786,73.4485042 C63.262786,72.4742401 64.0702097,69.5457501 64.2263624,68.1783617 L63.2856376,68.1783617 L63.3389581,67.9314722 Z M66.746324,68.6466922 C67.2414423,68.3067443 68.4563863,67.5527816 68.8600982,67.5527816 C69.0848057,67.5527816 69.1762122,67.721806 69.1762122,67.9554015 C69.1762122,68.3200384 68.5858788,70.4945656 68.4316304,71.0529159 L68.4563863,71.0814031 C69.0429111,70.0406687 71.0043412,67.5527816 72.1526347,67.5527816 C72.6210928,67.5527816 72.8172358,67.8262592 72.8172358,68.2687613 C72.8172358,68.8536996 71.6803681,72.5380515 71.6803681,72.9159825 L71.7984347,73.1229899 C72.0079078,73.1229899 72.5430165,72.7602521 72.7391595,72.6292107 L72.8953122,72.8912935 C71.7736788,73.6718443 71.1985799,73.9852042 70.8329541,73.9852042 C70.5320745,73.9852042 70.402582,73.7630036 70.402582,73.4876267 C70.402582,73.0603179 71.5375455,69.1024884 71.5375455,68.7758345 C71.5375455,68.593516 71.4727992,68.4909619 71.3414025,68.4909619 C70.8710401,68.4909619 69.656096,69.8317621 68.9134186,70.9503617 C68.4678122,71.6150644 68.182167,72.4620855 67.9726939,73.7497095 L66.6301616,73.9852042 C66.8643906,73.1229899 67.8946175,68.933464 67.8946175,68.7112634 L67.7517949,68.4909619 C67.5823122,68.4909619 67.3747433,68.6333982 66.8777208,68.933464 L66.746324,68.6466922 Z M77.8830575,72.5530548 C77.2013177,73.2272532 76.4205543,73.9850143 75.3617629,73.9850143 C74.2667898,73.9850143 73.7297769,73.0468339 73.7297769,72.0554774 C73.7297769,70.1164448 75.5179156,67.5525917 77.3727048,67.5525917 C78.0392102,67.5525917 78.6143091,67.8526574 78.6143091,68.5420491 C78.6143091,70.0005966 75.2570263,71.2103554 74.9313909,71.3281028 C74.9313909,72.0839646 75.0742134,73.2025643 75.9768522,73.2025643 C76.5519511,73.2025643 77.2812984,72.6954911 77.65835,72.290972 L77.8830575,72.5530548 Z M74.9580511,70.9387769 C76.3291478,70.3766284 77.4126952,69.70243 77.4126952,68.7642497 C77.4126952,68.2818654 77.1765618,68.0197827 76.7461898,68.0197827 C75.7826134,68.0197827 75.0227973,69.9607144 74.9580511,70.9387769 Z M79.0305894,68.6466922 C79.3828851,68.4244916 80.6892356,67.5527816 81.1196076,67.5527816 C81.3157506,67.5527816 81.4966592,67.6420417 81.4966592,67.8775363 C81.4966592,68.0997369 81.1843539,69.1803535 81.001541,70.0653576 L81.0282012,70.0653576 C81.4585732,69.2316306 82.3612119,67.5527816 83.4561851,67.5527816 C83.6789883,67.5527816 83.8084808,67.6173527 83.8084808,67.8262592 C83.8084808,68.0598548 83.576156,68.8157166 83.4314291,69.2449246 L83.0658033,69.2449246 L83.0905592,68.9201699 C83.0905592,68.7245574 83.0505689,68.5669279 82.867756,68.5669279 C82.3612119,68.5669279 81.3671668,69.79188 80.9863066,70.8345136 C80.6892356,71.6777364 80.4797625,72.9672595 80.3483657,73.7497095 L79.0305894,73.9852042 C79.4628657,72.3823212 80.1141367,69.1404714 80.1141367,68.7511455 L79.9713141,68.5669279 C79.7751711,68.5669279 79.3562248,68.8157166 79.1619861,68.933464 L79.0305894,68.6466922 Z M84.3032182,72.1358115 C84.2384719,72.4605662 84.1870558,72.7720269 84.1870558,73.1119748 C84.1870558,73.5145947 84.7221644,73.5145947 84.9963838,73.5145947 C85.5448225,73.5145947 85.9618644,73.227823 85.9618644,72.6428846 C85.9618644,71.524285 84.1356397,70.7817172 84.1356397,69.4656059 C84.1356397,68.4628545 85.4515117,67.5531614 86.6150397,67.5531614 C87.1501483,67.5531614 87.5690945,67.6044385 87.5690945,67.7468748 C87.5690945,67.8399331 87.3862816,68.7363321 87.3462913,69.2453045 L87.0454117,69.2453045 C86.9673354,68.3204182 86.8759289,68.0203524 86.1979977,68.0203524 C85.6095687,68.0203524 85.2306128,68.3716953 85.2306128,68.9585327 C85.2306128,69.9100071 87.0587418,70.9906237 87.0587418,72.0047701 C87.0587418,73.5145947 85.4267558,73.985584 84.4212848,73.985584 C83.7947698,73.985584 83.3244074,73.9324078 83.3244074,73.7500893 C83.3244074,73.619048 83.8995063,72.40739 83.9775827,72.1358115 L84.3032182,72.1358115 Z M93.1942095,65.6124196 C93.1942095,64.961011 93.6112514,64.7141214 93.9768772,64.7141214 C94.4339095,64.7141214 94.6567127,65.0141872 94.6567127,65.36553 C94.6567127,66.0302327 94.2530009,66.248635 93.8473847,66.248635 C93.5084191,66.248635 93.1942095,65.9504683 93.1942095,65.6124196 Z M91.3927406,68.647262 C92.3582213,68.0205423 93.1427933,67.5514522 93.457003,67.5514522 C93.7959686,67.5514522 93.9007052,67.7223757 93.9007052,67.9692653 C93.9007052,68.5428087 92.8019234,72.3563028 92.8019234,72.9545352 L92.9733105,73.1235596 C93.1942095,73.1235596 93.7045622,72.8367879 93.8740449,72.7456287 L94.0054417,73.0191063 C93.0113966,73.645826 92.3982116,73.9838748 92.0325858,73.9838748 C91.66696,73.9838748 91.5222331,73.7502793 91.5222331,73.4122305 C91.5222331,72.7855108 92.6210148,69.2967714 92.6210148,68.7631102 L92.413446,68.4896325 C92.2287288,68.4896325 91.9164234,68.6833458 91.5507976,68.9074456 L91.3927406,68.647262 Z M95.0082467,68.6466922 C95.5033649,68.3067443 96.718309,67.5527816 97.1239252,67.5527816 C97.3448241,67.5527816 97.4362305,67.721806 97.4362305,67.9554015 C97.4362305,68.3200384 96.8497058,70.4945656 96.6935531,71.0529159 L96.718309,71.0814031 C97.3048338,70.0406687 99.2662639,67.5527816 100.412653,67.5527816 C100.88492,67.5527816 101.079158,67.8262592 101.079158,68.2687613 C101.079158,68.8536996 99.9441951,72.5380515 99.9441951,72.9159825 L100.062262,73.1229899 C100.269831,73.1229899 100.804939,72.7602521 101.001082,72.6292107 L101.157235,72.8912935 C100.035602,73.6718443 99.4585983,73.9852042 99.0948768,73.9852042 C98.7939972,73.9852042 98.6645047,73.7630036 98.6645047,73.4876267 C98.6645047,73.0603179 99.7994682,69.1024884 99.7994682,68.7758345 C99.7994682,68.593516 99.7347219,68.4909619 99.6052295,68.4909619 C99.1348671,68.4909619 97.9180187,69.8317621 97.1753413,70.9503617 C96.7335434,71.6150644 96.4440897,72.4620855 96.2365209,73.7497095 L94.89018,73.9852042 C95.1263133,73.1229899 96.1565402,68.933464 96.1565402,68.7112634 L96.0137176,68.4909619 C95.8442348,68.4909619 95.636666,68.6333982 95.1396434,68.933464 L95.0082467,68.6466922 Z M107.149309,65.6124196 C107.149309,64.961011 107.566351,64.7141214 107.931976,64.7141214 C108.389009,64.7141214 108.613716,65.0141872 108.613716,65.36553 C108.613716,66.0302327 108.206196,66.248635 107.802484,66.248635 C107.463518,66.248635 107.149309,65.9504683 107.149309,65.6124196 Z M105.349744,68.647262 C106.31332,68.0205423 107.097892,67.5514522 107.410198,67.5514522 C107.751068,67.5514522 107.855804,67.7223757 107.855804,67.9692653 C107.855804,68.5428087 106.758927,72.3563028 106.758927,72.9545352 L106.926505,73.1235596 C107.149309,73.1235596 107.659661,72.8367879 107.82724,72.7456287 L107.958637,73.0191063 C106.9684,73.645826 106.355215,73.9838748 105.987685,73.9838748 C105.622059,73.9838748 105.479237,73.7502793 105.479237,73.4122305 C105.479237,72.7855108 106.576114,69.2967714 106.576114,68.7631102 L106.366641,68.4896325 C106.183828,68.4896325 105.871523,68.6833458 105.505897,68.9074456 L105.349744,68.647262 Z M108.963346,68.6466922 C109.458464,68.3067443 110.673408,67.5527816 111.079024,67.5527816 C111.299923,67.5527816 111.393234,67.721806 111.393234,67.9554015 C111.393234,68.3200384 110.806709,70.4945656 110.648652,71.0529159 L110.673408,71.0814031 C111.261837,70.0406687 113.221363,67.5527816 114.367752,67.5527816 C114.838115,67.5527816 115.036162,67.8262592 115.036162,68.2687613 C115.036162,68.8536996 113.89739,72.5380515 113.89739,72.9159825 L114.015457,73.1229899 C114.22493,73.1229899 114.761943,72.7602521 114.956181,72.6292107 L115.112334,72.8912935 C113.988796,73.6718443 113.413697,73.9852042 113.049976,73.9852042 C112.749096,73.9852042 112.619604,73.7630036 112.619604,73.4876267 C112.619604,73.0603179 113.752663,69.1024884 113.752663,68.7758345 C113.752663,68.593516 113.689821,68.4909619 113.558424,68.4909619 C113.089966,68.4909619 111.875022,69.8317621 111.13044,70.9503617 C110.688643,71.6150644 110.399189,72.4620855 110.19162,73.7497095 L108.847183,73.9852042 C109.081412,73.1229899 110.111639,68.933464 110.111639,68.7112634 L109.968817,68.4909619 C109.799334,68.4909619 109.589861,68.6333982 109.092838,68.933464 L108.963346,68.6466922 Z M116.157034,68.6466922 C116.652152,68.3067443 117.867096,67.5527816 118.270808,67.5527816 C118.495515,67.5527816 118.585017,67.721806 118.585017,67.9554015 C118.585017,68.3200384 117.998493,70.4945656 117.840436,71.0529159 L117.867096,71.0814031 C118.453621,70.0406687 120.413146,67.5527816 121.56144,67.5527816 C122.029898,67.5527816 122.227945,67.8262592 122.227945,68.2687613 C122.227945,68.8536996 121.089173,72.5380515 121.089173,72.9159825 L121.20724,73.1229899 C121.416713,73.1229899 121.953726,72.7602521 122.147965,72.6292107 L122.304117,72.8912935 C121.182484,73.6718443 120.609289,73.9852042 120.243664,73.9852042 C119.942784,73.9852042 119.809483,73.7630036 119.809483,73.4876267 C119.809483,73.0603179 120.948255,69.1024884 120.948255,68.7758345 C120.948255,68.593516 120.883509,68.4909619 120.750208,68.4909619 C120.28175,68.4909619 119.06871,69.8317621 118.322224,70.9503617 C117.880426,71.6150644 117.590972,72.4620855 117.383403,73.7497095 L116.040871,73.9852042 C116.273196,73.1229899 117.305327,68.933464 117.305327,68.7112634 L117.162505,68.4909619 C116.993022,68.4909619 116.783549,68.6333982 116.28843,68.933464 L116.157034,68.6466922 Z M124.643551,73.9857739 C123.61142,73.9857739 123.141058,73.2413069 123.141058,72.2271606 C123.141058,70.5862946 124.82446,67.5514522 126.783986,67.5514522 C127.814213,67.5514522 128.284575,68.3718852 128.284575,69.3100655 C128.284575,70.8597723 126.835402,73.9857739 124.643551,73.9857739 Z M125.388133,73.2811891 C126.45835,73.2811891 127.082961,71.551063 127.082961,70.0773223 C127.082961,69.2967714 126.902052,68.2541378 126.039404,68.2541378 C124.799704,68.2541378 124.342672,70.5217235 124.342672,71.4826936 C124.342672,72.2138665 124.369332,73.2811891 125.388133,73.2811891 Z M128.650962,68.6466922 C129.001354,68.4244916 130.098231,67.5527816 130.568594,67.5527816 C130.920889,67.5527816 130.985636,67.759789 131.077042,69.0759002 L131.339836,72.9672595 L131.364592,72.9672595 C132.670942,71.0149329 133.478366,69.79188 133.478366,69.2848068 C133.478366,68.8271115 132.971822,68.6466922 132.971822,68.4757687 C132.971822,68.3713154 133.714499,67.5527816 133.910642,67.5527816 C134.249608,67.5527816 134.41909,68.0351658 134.41909,68.4757687 C134.41909,69.4652261 132.044427,72.3690271 131.377922,73.7497095 C131.103702,73.7762976 130.555264,73.932028 130.269618,73.9852042 C130.281044,73.6452562 130.006825,70.4299945 129.799256,69.0626062 C129.732605,68.6068101 129.694519,68.4909619 129.603113,68.4909619 L128.793785,68.8935818 L128.650962,68.6466922 Z M140.372888,73.0342995 C139.57689,73.6192379 138.977035,73.9838748 138.649495,73.9838748 C138.283869,73.9838748 138.074396,73.8015563 138.074396,73.5033897 C138.074396,73.1653409 138.440022,71.7960534 138.493343,71.4599038 L138.464778,71.4599038 C137.461211,72.8899641 136.417654,73.9838748 135.594996,73.9838748 C134.759008,73.9838748 134.600951,73.1501477 134.600951,72.5917975 C134.600951,70.3375059 137.0575,67.5514522 139.380747,67.5514522 C139.784459,67.5514522 140.203405,67.6046284 140.607117,67.6559055 C140.123424,68.3718852 139.27601,72.6278813 139.27601,72.9564344 L139.460728,73.1235596 C139.614976,73.1235596 140.020592,72.8899641 140.214831,72.7722168 L140.372888,73.0342995 Z M136.377664,72.9678293 C136.941337,72.9678293 138.219123,71.4693996 138.453352,70.755319 C138.714242,69.972869 138.977035,69.0365878 139.119858,68.4250614 C138.898959,68.3718852 138.676155,68.3339022 138.321955,68.3339022 C136.74329,68.3339022 135.802565,70.6907479 135.802565,71.9916659 C135.802565,72.396185 135.882546,72.9678293 136.377664,72.9678293 Z M141.429965,67.9314722 C142.526843,67.6693894 143.28285,66.9401156 143.58373,65.9373642 L144.054092,65.9373642 C143.896035,66.5887728 143.741787,67.2002993 143.595156,67.7871367 L144.772014,67.7871367 L144.653947,68.1783617 L143.492323,68.1783617 C143.164784,69.4925739 142.618249,72.5653993 142.618249,72.890154 L142.841052,73.1237495 C143.008631,73.1237495 143.492323,72.8255829 143.817959,72.6166763 L143.976016,72.890154 C142.997205,73.5149745 142.304039,73.9840647 141.860337,73.9840647 C141.534702,73.9840647 141.351889,73.7751581 141.351889,73.4485042 C141.351889,72.4742401 142.161217,69.5457501 142.31737,68.1783617 L141.376645,68.1783617 L141.429965,67.9314722 Z M146.586813,65.6124196 C146.586813,64.961011 147.003855,64.7141214 147.36948,64.7141214 C147.826513,64.7141214 148.047412,65.0141872 148.047412,65.36553 C148.047412,66.0302327 147.641795,66.248635 147.239988,66.248635 C146.901022,66.248635 146.586813,65.9504683 146.586813,65.6124196 Z M144.785344,68.647262 C145.750824,68.0205423 146.533492,67.5514522 146.845798,67.5514522 C147.184763,67.5514522 147.291404,67.7223757 147.291404,67.9692653 C147.291404,68.5428087 146.194527,72.3563028 146.194527,72.9545352 L146.362105,73.1235596 C146.586813,73.1235596 147.095261,72.8367879 147.264744,72.7456287 L147.394236,73.0191063 C146.404,73.645826 145.78891,73.9838748 145.423285,73.9838748 C145.057659,73.9838748 144.916741,73.7502793 144.916741,73.4122305 C144.916741,72.7855108 146.011714,69.2967714 146.011714,68.7631102 L145.802241,68.4896325 C145.619428,68.4896325 145.307122,68.6833458 144.943401,68.9074456 L144.785344,68.647262 Z M149.693299,73.9857739 C148.663072,73.9857739 148.19271,73.2413069 148.19271,72.2271606 C148.19271,70.5862946 149.876112,67.5514522 151.835638,67.5514522 C152.865865,67.5514522 153.334323,68.3718852 153.334323,69.3100655 C153.334323,70.8597723 151.887054,73.9857739 149.693299,73.9857739 Z M150.437881,73.2811891 C151.506194,73.2811891 152.134613,71.551063 152.134613,70.0773223 C152.134613,69.2967714 151.9518,68.2541378 151.091056,68.2541378 C149.849452,68.2541378 149.394324,70.5217235 149.394324,71.4826936 C149.394324,72.2138665 149.41908,73.2811891 150.437881,73.2811891 Z M154.131273,68.6466922 C154.628295,68.3067443 155.841335,67.5527816 156.246951,67.5527816 C156.46785,67.5527816 156.559256,67.721806 156.559256,67.9554015 C156.559256,68.3200384 155.972732,70.4945656 155.814675,71.0529159 L155.841335,71.0814031 C156.429764,70.0406687 158.387385,67.5527816 159.535679,67.5527816 C160.004137,67.5527816 160.202184,67.8262592 160.202184,68.2687613 C160.202184,68.8536996 159.063412,72.5380515 159.063412,72.9159825 L159.181479,73.1229899 C159.390952,73.1229899 159.927965,72.7602521 160.122204,72.6292107 L160.280261,72.8912935 C159.156723,73.6718443 158.583528,73.9852042 158.217903,73.9852042 C157.917023,73.9852042 157.785626,73.7630036 157.785626,73.4876267 C157.785626,73.0603179 158.922494,69.1024884 158.922494,68.7758345 C158.922494,68.593516 158.855844,68.4909619 158.724447,68.4909619 C158.255989,68.4909619 157.042949,69.8317621 156.298367,70.9503617 C155.854665,71.6150644 155.565211,72.4620855 155.359547,73.7497095 L154.01511,73.9852042 C154.249339,73.1229899 155.279566,68.933464 155.279566,68.7112634 L155.136744,68.4909619 C154.967261,68.4909619 154.757788,68.6333982 154.262669,68.933464 L154.131273,68.6466922 Z"/>
  </g>
</svg>
