<svg xmlns="http://www.w3.org/2000/svg" width="14" height="17" viewBox="0 0 14 17">
  <path fill="#882B00" fill-rule="evenodd" d="M6.00000002,13.5197011 L8.30328288,11.282654 C8.69946211,10.8978678 9.33255973,10.9071036 9.71734598,11.3032829 C10.1021322,11.6994621 10.0928964,12.3325597 9.69671716,12.717346 L5.6283595,16.6687093 C5.23556171,17.0502113 4.60899008,17.0448575 4.22276882,16.6566989 L0.29112648,12.7053356 C-0.0984196139,12.3138356 -0.0968356231,11.6806726 0.294664422,11.2911265 C0.686164468,10.9015804 1.31932747,10.9031644 1.70887356,11.2946644 L4.00000002,13.5972831 L4.00000002,5 C4.00000002,1.94905829 5.13695069,-3.10862447e-15 8.00000002,-1.77635684e-15 L13,-8.8817842e-16 C13.5522848,-8.8817842e-16 14,0.44771525 14,1 C14,1.55228475 13.5522848,2 13,2 L8.00000002,2 C6.52971602,2 6.00000002,2.90808457 6.00000002,5 L6.00000002,13.5197011 Z"/>
</svg>
