<?xml version="1.0" encoding="UTF-8"?>
<svg width="23px" height="18px" viewBox="0 0 23 18" version="1.1" xmlns="http://www.w3.org/2000/svg" xmlns:xlink="http://www.w3.org/1999/xlink">
    <!-- Generator: Sketch 43.2 (39069) - http://www.bohemiancoding.com/sketch -->
    <title>twitter</title>
    <desc>Created with Sketch.</desc>
    <defs></defs>
    <g id="Page-1" stroke="none" stroke-width="1" fill="none" fill-rule="evenodd">
        <g id="twitter" fill="#6B6B6A">
            <path d="M22.5406228,2.10866007 C21.7282363,2.46711007 20.8595425,2.7060714 19.9506292,2.80962027 C20.8836742,2.2600044 21.5995418,1.3838022 21.9373618,0.340331813 C21.0606322,0.85011814 20.0954114,1.22449197 19.0658555,1.42363173 C18.2454172,0.555395433 17.071071,0.0137454733 15.7760822,0.0137454733 C13.2826074,0.0137454733 11.2636991,2.01307713 11.2636991,4.4823656 C11.2636991,4.83284967 11.3039186,5.17536787 11.3843497,5.5019462 C7.62805783,5.31078033 4.30611121,3.5344782 2.07807416,0.83418632 C1.69198748,1.49532493 1.46677093,2.2600044 1.46677093,3.08044527 C1.46677093,4.63370993 2.26307359,5.99580867 3.47763531,6.80031773 C2.73763682,6.77642 2.04590013,6.5772882 1.43459771,6.24273593 L1.43459771,6.29849733 C1.43459771,8.46509713 2.98698429,10.2652939 5.05415205,10.6794973 C4.67611004,10.7830485 4.27393719,10.8388067 3.86372123,10.8388067 C3.57415657,10.8388067 3.2926359,10.8069454 3.01111441,10.7591523 C3.58219967,12.5354505 5.25523848,13.8258545 7.22588571,13.8656817 C5.68154145,15.0605011 3.73502588,15.7773923 1.61959714,15.7773923 C1.25764155,15.7773923 0.895686037,15.7534962 0.541774024,15.7136691 C2.53655118,16.9801769 4.9093705,17.7209647 7.45914542,17.7209647 C15.7599944,17.7209647 20.2965011,10.9104951 20.2965011,5.00809173 C20.2965011,4.81691787 20.2884572,4.61777813 20.2804133,4.4266122 C21.1732388,3.78937133 21.9373618,3.00079413 22.5406228,2.10866007 L22.5406228,2.10866007 Z" id="Shape"></path>
        </g>
    </g>
</svg>